<?xml version="1.0" encoding="UTF-8" standalone="no"?>
<!-- Created with Inkscape (http://www.inkscape.org/) -->

<svg
   xmlns:dc="http://purl.org/dc/elements/1.1/"
   xmlns:cc="http://creativecommons.org/ns#"
   xmlns:rdf="http://www.w3.org/1999/02/22-rdf-syntax-ns#"
   xmlns:svg="http://www.w3.org/2000/svg"
   xmlns="http://www.w3.org/2000/svg"
   xmlns:sodipodi="http://sodipodi.sourceforge.net/DTD/sodipodi-0.dtd"
   xmlns:inkscape="http://www.inkscape.org/namespaces/inkscape"
   width="509.23047"
   height="305.06076"
   viewBox="0 0 509.23047 305.06076"
   id="svg2"
   version="1.1"
   inkscape:version="0.91 r13725"
   inkscape:export-filename="/home/vassilis/Source/done-development/images/logo.png"
   inkscape:export-xdpi="20.294027"
   inkscape:export-ydpi="20.294027"
   sodipodi:docname="logo.svg">
  <defs
     id="defs4">
    <clipPath
       id="clipPath4177"
       clipPathUnits="userSpaceOnUse">
      <path
         inkscape:connector-curvature="0"
         id="path4179"
         d="m 0,595.28 841.89,0 L 841.89,0 0,0 0,595.28 Z" />
    </clipPath>
  </defs>
  <sodipodi:namedview
     id="base"
     pagecolor="#ffffff"
     bordercolor="#666666"
     borderopacity="1.0"
     inkscape:pageopacity="0.0"
     inkscape:pageshadow="2"
     inkscape:zoom="1.979899"
     inkscape:cx="280.87068"
     inkscape:cy="77.311657"
     inkscape:document-units="px"
     inkscape:current-layer="layer1"
     showgrid="false"
     fit-margin-top="0"
     fit-margin-left="0"
     fit-margin-right="0"
     fit-margin-bottom="0"
     inkscape:window-width="1871"
     inkscape:window-height="1176"
     inkscape:window-x="49"
     inkscape:window-y="24"
     inkscape:window-maximized="1"
     units="px" />
  <metadata
     id="metadata7">
    <rdf:RDF>
      <cc:Work
         rdf:about="">
        <dc:format>image/svg+xml</dc:format>
        <dc:type
           rdf:resource="http://purl.org/dc/dcmitype/StillImage" />
        <dc:title></dc:title>
      </cc:Work>
    </rdf:RDF>
  </metadata>
  <g
     inkscape:label="Layer 1"
     inkscape:groupmode="layer"
     id="layer1"
     transform="translate(-818.35777,-612.4311)">
    <g
       id="g4173"
       transform="matrix(1.25,0,0,-1.25,563.9059,1180.4946)">
      <g
         id="g4175"
         clip-path="url(#clipPath4177)">
        <g
           id="g4181"
           transform="translate(604.5469,245.8076)">
          <path
             d="m 0,0 c -5.173,-3.999 -10.033,-6.868 -14.591,-8.616 -4.556,-1.747 -9.189,-2.626 -13.911,-2.626 -3.375,0 -6.548,0.565 -9.53,1.695 -2.974,1.113 -5.564,2.583 -7.756,4.401 -2.182,1.808 -3.938,3.903 -5.226,6.277 -1.295,2.365 -1.938,4.808 -1.938,7.304 l 58.178,0 C 6.233,17.051 5.756,24.92 3.791,32.041 1.826,39.162 -1.243,45.31 -5.4,50.492 c -4.165,5.182 -9.164,9.216 -15.007,12.086 -5.843,2.878 -12.138,4.312 -18.885,4.312 -6.522,0 -12.591,-1.278 -18.208,-3.843 -5.626,-2.556 -10.512,-6.121 -14.677,-10.677 -1.991,-2.191 -3.773,-4.574 -5.346,-7.139 -1.296,4.791 -3.357,8.895 -6.201,12.286 -5.225,6.252 -12.781,9.373 -22.675,9.373 -5.626,0 -10.6,-1.121 -14.921,-3.373 -4.33,-2.252 -8.912,-6 -13.746,-11.243 l 0,12.93 -35.076,0 0,-19.416 c -1.026,1.556 -2.138,3.069 -3.365,4.521 -4.165,4.93 -9.591,8.93 -16.275,11.99 -6.686,3.061 -14.755,4.591 -24.193,4.591 -9.221,0 -17.116,-1.469 -23.69,-4.408 -2.947,-1.313 -5.625,-2.843 -8.107,-4.53 l 39.148,-36.136 c 3.33,-3.078 3.539,-8.269 0.461,-11.599 -1.447,-1.565 -3.36,-2.444 -5.33,-2.617 -2.217,-0.183 -4.504,0.522 -6.26,2.156 l -39.672,36.619 c -2.531,-3.652 -4.537,-7.604 -5.959,-11.899 -2.022,-6.122 -3.034,-12.364 -3.034,-18.738 0,-5.991 0.986,-12.051 2.951,-18.172 1.966,-6.121 5.061,-11.608 9.274,-16.486 4.217,-4.868 9.669,-8.843 16.354,-11.903 6.692,-3.052 14.756,-4.582408 24.199,-4.582408 8.882,0 16.58,1.435408 23.101,4.303408 6.522,2.878 11.945,6.687 16.275,11.435 1.514,1.66 2.887,3.417 4.122,5.26 l 0,-20.998408 35.076,0 0,59.577408 c 3.825,7.122 8.485,10.678 13.998,10.678 6.747,0 10.112,-4.809 10.112,-14.425 l 0,-55.830408 35.075,0 0,20.345408 c 1.33,-1.895 2.791,-3.686 4.382,-5.355 4.383,-4.626 9.695,-8.277 15.938,-10.964 6.235,-2.687 13.173,-4.026408 20.824,-4.026408 8.539,0 16.295,1.617408 23.268,4.869408 6.964,3.253 12.929,8.06 17.868,14.425 z"
             style="fill:#464648;fill-opacity:1;fill-rule:nonzero;stroke:none"
             id="path4183"
             inkscape:connector-curvature="0"
             sodipodi:nodetypes="ccscccccsccsccccsccccccssccccccccscccsccccccsscccccsccc" />
        </g>
        <g
           id="g4185"
           transform="translate(335.4595,377.1968)">
          <path
             d="m 0,0 0,77.254 -34.954,0 c -0.918,-8.99 -3.226,-16.572 -6.912,-22.772 -3.7,-6.2 -8.33,-11.155 -13.912,-14.877 -5.578,-3.712 -11.929,-6.347 -19.059,-7.903 -7.13,-1.531 -14.564,-2.166 -22.311,-1.852 l 0,-35.798 33.479,0 20.194,0 0.244,0 0,-6.055 L 0,-51.917 0,0 Z"
             style="fill:#464648;fill-opacity:1;fill-rule:nonzero;stroke:none"
             id="path4187"
             inkscape:connector-curvature="0" />
        </g>
        <g
           id="g4189"
           transform="translate(292.2285,317.5762)">
          <path
             d="m 0,0 c -1.333,0.739 -2.674,1.469 -4.113,2.13 -7.382,3.373 -16.285,5.06 -26.698,5.06 -10.168,0 -18.881,-1.617 -26.137,-4.852 -7.255,-3.243 -13.241,-7.511 -17.95,-12.816 -4.717,-5.312 -8.19,-11.337 -10.421,-18.093 -2.23,-6.747 -3.348,-13.643 -3.348,-20.668 0,-6.609 1.083,-13.295 3.257,-20.051 2.169,-6.747 5.582,-12.816 10.233,-18.189 4.644,-5.374 10.661,-9.748 18.042,-13.122 7.378,-3.381 16.278,-5.82051 26.694,-5.82051 9.799,0 18.298,2.33451 25.484,5.50851 1.725,0.761 3.372,1.586 4.957,2.465 l 0,-9.47851 43.048,0 0,93.46751 L 0,25.28 Z"
             style="fill:#8abe00;fill-opacity:1;fill-rule:nonzero;stroke:none"
             id="path4191"
             inkscape:connector-curvature="0"
             sodipodi:nodetypes="ccscccscccsccccccc"
             inkscape:export-xdpi="21.209999"
             inkscape:export-ydpi="21.209999" />
        </g>
      </g>
    </g>
  </g>
</svg>
